<svg preserveAspectRatio="xMidYMid meet" data-bbox="10 26 180 148" viewBox="10 26 180 148" height="200" width="200" xmlns="http://www.w3.org/2000/svg" data-type="shape" role="presentation" aria-hidden="true">
    <g>
        <path d="M87.3 147.2H190l-43.4-64.6c9.2-2 16.2-10.3 16.2-20.2 0-11.4-9.2-20.7-20.6-20.7-7.1 0-13.3 3.6-17 9L108.6 26l-51.3 76.5-8.6-12.9L10 147.2h77.3zm-54.9-2.7l24.9-37.1 24.9 37.1H32.4zm109.9-100c9.8 0 17.8 8 17.8 17.9 0 9-6.6 16.4-15.1 17.7l-18-26.8c3-5.3 8.7-8.8 15.3-8.8zm-16.7 11.6l16.2 24.2c-9.6-.2-17.4-8.2-17.4-17.9 0-2.2.4-4.3 1.2-6.3zm-17-25.2l15.1 22.5c-1.3 2.7-2.1 5.8-2.1 9 0 11.4 9.2 20.7 20.6 20.7.5 0 .9 0 1.4-.1l41.3 61.5H85.5l-26.6-39.6 49.7-74zM15.1 144.5l33.6-50 7 10.4-26.6 39.6h-14z"></path>
        <path d="M187.5 154.5v2.7H12.6v-2.7h174.9z"></path>
        <path d="M158.1 163.5v2.7H41.8v-2.7h116.3z"></path>
        <path d="M125.8 171.3v2.7H74.2v-2.7h51.6z"></path>
    </g>
</svg>