<svg preserveAspectRatio="xMidYMid meet" data-bbox="32.5 26.4 135 147.2" viewBox="32.5 26.4 135 147.2" height="200" width="200" xmlns="http://www.w3.org/2000/svg" data-type="shape" role="presentation" aria-hidden="true">
    <g>
        <path d="M167.5 94.5h-135l64.9 76H72.7v2.9h27.1l.1.2.1-.2h27.1v-2.9h-24.7l65.1-76zm-6.2 2.8L100 169.1 38.7 97.3h122.6z"></path>
        <path d="M71.3 55c0 15.7 12.9 28.5 28.7 28.5s28.7-12.8 28.7-28.5c0-6.7-2.3-12.8-6.2-17.7h13.4v-2.9h-16c-5.2-4.9-12.2-8-19.9-8s-14.7 3-19.9 8h-16v2.9h13.4c-3.9 4.9-6.2 11-6.2 17.7zm54.5 0c0 14.2-11.6 25.7-25.8 25.7S74.2 69.2 74.2 55c0-6.8 2.7-13.1 7.1-17.7h37.4c4.4 4.6 7.1 10.9 7.1 17.7zM100 29.4c5.8 0 11.2 1.9 15.5 5.1h-31c4.3-3.2 9.7-5.1 15.5-5.1z"></path>
    </g>
</svg>