<svg preserveAspectRatio="xMidYMid meet" data-bbox="12 24.6 176 150.9" viewBox="12 24.6 176 150.9" height="200" width="200" xmlns="http://www.w3.org/2000/svg" data-type="shape" role="presentation" aria-hidden="true">
    <g>
        <path d="M188 175.5l-16.5-23.4h13.7v-2.8h-15.7l-4.7-6.7h20.4v-2.8h-22.4l-34.7-49.4h11.3v-2.8h-13.3l-24.2-34.4 19-27-2.3-1.6-18.4 26.2-.2-.2-.2.3-18.4-24.5-2.3 1.7 19 25-24.2 34.5H60.6v2.8h11.3l-34.7 49.4H14.7v2.8h20.4l-4.7 6.7H14.7v2.8h13.7L12 175.5h176zM99.9 55.6l.2.2.1-.2 22.5 31.9H77.4l22.5-31.9zM75.4 90.4h49.3l34.7 49.4H40.6l34.8-49.4zm-36.8 52.2h122.8l4.7 6.7H33.9l4.7-6.7zm129.5 9.5l14.5 20.5h-165l14.5-20.5h136z"></path>
    </g>
</svg>